<?xml version="1.0" encoding="utf-8"?>
<!-- Generator: Adobe Illustrator 16.0.0, SVG Export Plug-In . SVG Version: 6.00 Build 0)  -->
<!DOCTYPE svg PUBLIC "-//W3C//DTD SVG 1.1//EN" "http://www.w3.org/Graphics/SVG/1.1/DTD/svg11.dtd">
<svg version="1.1" id="Layer_1" xmlns="http://www.w3.org/2000/svg" xmlns:xlink="http://www.w3.org/1999/xlink" x="0px" y="0px"
	 width="322.521px" height="79.676px" viewBox="0 0 322.521 79.676" enable-background="new 0 0 322.521 79.676"
	 xml:space="preserve">
<g>
	<path fill="#666666" d="M162.63,58.612c-3.216,0-5.999-0.786-8.351-2.36c-2.352-1.572-3.976-3.725-4.875-6.457l5.083-1.866
		c0.76,1.694,1.867,3.033,3.319,4.019s3.128,1.479,5.03,1.479c2.005,0,3.604-0.484,4.797-1.452c1.193-0.968,1.79-2.351,1.79-4.149
		c0-0.76-0.165-1.46-0.493-2.101c-0.329-0.639-0.7-1.166-1.115-1.581s-1.055-0.838-1.919-1.271s-1.581-0.761-2.152-0.985
		c-0.57-0.225-1.409-0.527-2.515-0.908c-1.384-0.483-2.421-0.863-3.112-1.141c-0.691-0.276-1.6-0.734-2.723-1.374
		c-1.124-0.64-1.971-1.279-2.541-1.919s-1.081-1.479-1.53-2.516s-0.674-2.195-0.674-3.475c0-2.662,1.037-4.909,3.111-6.742
		c2.075-1.832,4.893-2.749,8.454-2.749c2.973,0,5.419,0.657,7.338,1.971c1.919,1.314,3.207,3.061,3.864,5.238l-4.979,1.659
		c-0.485-1.105-1.289-1.996-2.412-2.671c-1.124-0.674-2.533-1.011-4.227-1.011c-1.729,0-3.086,0.381-4.071,1.141
		c-0.985,0.761-1.479,1.833-1.479,3.216c0,0.934,0.381,1.763,1.142,2.489c0.76,0.726,1.556,1.263,2.386,1.607
		c0.829,0.347,2.091,0.813,3.786,1.4c1.037,0.381,1.806,0.666,2.308,0.855c0.501,0.19,1.235,0.511,2.204,0.96
		c0.968,0.449,1.711,0.855,2.229,1.219s1.124,0.855,1.815,1.478c0.691,0.623,1.219,1.254,1.582,1.894s0.674,1.418,0.934,2.334
		c0.259,0.916,0.389,1.893,0.389,2.93c0,3.389-1.158,6.042-3.475,7.961S166.26,58.612,162.63,58.612z"/>
	<path fill="#666666" d="M194.991,57.989l-12.447-36.304h5.809l8.246,25.31c0.519,1.59,0.898,2.974,1.142,4.148
		c0.241-1.175,0.622-2.559,1.141-4.148l8.143-25.31h5.757l-12.396,36.304H194.991z"/>
	<path fill="#666666" d="M242.394,57.989l-2.904-8.35h-14.677l-2.956,8.35h-5.602l13.122-36.304h5.549l13.069,36.304H242.394z
		 M237.83,44.868l-4.408-12.343c-0.622-1.693-1.037-3.061-1.245-4.098c-0.311,1.245-0.726,2.611-1.244,4.098l-4.46,12.343H237.83z"
		/>
	<path fill="#666666" d="M285.439,57.989h-5.082l-15.715-24.635c-0.484-0.76-0.968-1.659-1.452-2.696
		c0.104,1.659,0.156,2.559,0.156,2.696v24.635h-5.394V21.686h5.445l15.299,24.22c0.381,0.623,0.882,1.557,1.504,2.801
		c-0.104-1.037-0.155-1.953-0.155-2.749V21.686h5.394V57.989z"/>
	<path fill="#666666" d="M312.252,26.872v31.117h-5.394V26.872H296.59v-5.187h25.931v5.187H312.252z"/>
</g>
<g>
	<g>
		<linearGradient id="back_1_" gradientUnits="userSpaceOnUse" x1="65.0444" y1="-7.8281" x2="65.0444" y2="89.6279">
			<stop  offset="0" style="stop-color:#29CDFF"/>
			<stop  offset="0.3786" style="stop-color:#148EFF"/>
			<stop  offset="1" style="stop-color:#0A60FF"/>
		</linearGradient>
		<path id="back_2_" fill="url(#back_1_)" d="M93.979,10.542C86.577-0.047,71.96-3.187,61.392,3.547L42.83,15.375
			c-5.065,3.182-8.557,8.347-9.621,14.233c-0.889,4.914-0.112,9.981,2.207,14.404c-1.589,2.409-2.671,5.117-3.182,7.956
			c-1.071,6.012,0.327,12.2,3.878,17.167C43.513,79.724,58.13,82.861,68.7,76.13l18.561-11.779
			c5.058-3.187,8.547-8.353,9.622-14.233c0.883-4.911,0.103-9.978-2.214-14.397c1.587-2.409,2.671-5.116,3.188-7.956
			c1.067-6.009-0.33-12.197-3.879-17.164"/>
		<path id="front_2_" fill="#FFFFFF" d="M59.577,70.158c-5.986,1.554-12.303-0.791-15.829-5.87
			c-2.133-2.987-2.974-6.707-2.326-10.319c0.103-0.583,0.252-1.156,0.44-1.716l0.351-1.068l0.952,0.713
			c2.192,1.599,4.639,2.816,7.237,3.602l0.712,0.206l-0.064,0.711c-0.067,0.976,0.207,1.945,0.775,2.739
			c1.064,1.528,2.967,2.233,4.768,1.766c0.403-0.108,0.788-0.275,1.138-0.498l18.534-11.829c0.92-0.578,1.554-1.519,1.744-2.59
			c0.19-1.09-0.065-2.21-0.712-3.11c-1.063-1.528-2.966-2.233-4.768-1.764c-0.404,0.106-0.785,0.275-1.139,0.499l-7.116,4.517
			c-1.164,0.738-2.434,1.296-3.765,1.651c-5.975,1.545-12.278-0.796-15.798-5.864c-2.13-2.988-2.963-6.707-2.313-10.318
			c0.635-3.548,2.734-6.664,5.785-8.583l18.589-11.828c1.158-0.738,2.419-1.293,3.744-1.651c5.982-1.554,12.299,0.791,15.82,5.872
			c2.137,2.984,2.977,6.705,2.334,10.318c-0.11,0.585-0.258,1.163-0.44,1.729l-0.356,1.067l-0.947-0.709
			c-2.197-1.613-4.651-2.841-7.257-3.629l-0.712-0.207l0.063-0.712c0.084-0.982-0.187-1.959-0.755-2.76
			c-1.068-1.502-2.957-2.186-4.74-1.716c-0.403,0.108-0.786,0.274-1.138,0.499L53.818,31.109c-0.917,0.581-1.548,1.519-1.743,2.583
			c-0.188,1.094,0.068,2.214,0.712,3.118c1.059,1.514,2.942,2.217,4.732,1.765c0.402-0.109,0.786-0.276,1.138-0.497l7.117-4.515
			c1.165-0.746,2.436-1.304,3.773-1.657c5.979-1.557,12.299,0.783,15.82,5.864c2.135,2.986,2.977,6.706,2.335,10.318
			c-0.635,3.549-2.737,6.663-5.786,8.583L63.348,68.501C62.182,69.24,60.91,69.801,59.577,70.158"/>
	</g>
	<g>
		<linearGradient id="SVGID_1_" gradientUnits="userSpaceOnUse" x1="118.3296" y1="10.4604" x2="118.3296" y2="65.1685">
			<stop  offset="0" style="stop-color:#FA816E"/>
			<stop  offset="0.4147" style="stop-color:#F74A5C"/>
			<stop  offset="1" style="stop-color:#F51D2C"/>
		</linearGradient>
		<path fill="url(#SVGID_1_)" d="M109.378,63.212c-1.028,0-2.054-0.395-2.833-1.184c-1.543-1.563-1.528-4.081,0.035-5.627
			l15.113-14.923l-14.965-15.573c-1.523-1.583-1.473-4.101,0.111-5.625c1.585-1.523,4.105-1.473,5.625,0.111l17.684,18.402
			c1.51,1.569,1.477,4.058-0.071,5.588l-17.906,17.682C111.397,62.831,110.387,63.212,109.378,63.212z"/>
	</g>
	<g>

			<linearGradient id="SVGID_2_" gradientUnits="userSpaceOnUse" x1="120.439" y1="15.8857" x2="120.439" y2="67.9674" gradientTransform="matrix(-1 0 0 1 132.8262 0)">
			<stop  offset="0" style="stop-color:#29CDFF"/>
			<stop  offset="0.3786" style="stop-color:#148EFF"/>
			<stop  offset="1" style="stop-color:#0A60FF"/>
		</linearGradient>
		<path fill="url(#SVGID_2_)" d="M20.963,62.283c-0.968,0-1.937-0.365-2.678-1.1L1.135,44.248c-1.483-1.464-1.517-3.849-0.072-5.352
			l16.94-17.626c1.458-1.518,3.87-1.565,5.387-0.108c1.519,1.458,1.566,3.87,0.108,5.388L9.167,41.467l14.474,14.295
			c1.498,1.479,1.513,3.891,0.034,5.39C22.929,61.905,21.945,62.283,20.963,62.283z"/>
	</g>
</g>
</svg>
