<?xml version="1.0" encoding="utf-8"?>
<!-- Generator: Adobe Illustrator 16.0.0, SVG Export Plug-In . SVG Version: 6.00 Build 0)  -->
<!DOCTYPE svg PUBLIC "-//W3C//DTD SVG 1.1//EN" "http://www.w3.org/Graphics/SVG/1.1/DTD/svg11.dtd">
<svg version="1.1" id="Layer_1" xmlns="http://www.w3.org/2000/svg" xmlns:xlink="http://www.w3.org/1999/xlink" x="0px" y="0px"
	 width="353.301px" height="207.855px" viewBox="0 0 353.301 207.855" enable-background="new 0 0 353.301 207.855"
	 xml:space="preserve">
<g>
	<linearGradient id="back_1_" gradientUnits="userSpaceOnUse" x1="175.9644" y1="-20.4219" x2="175.9643" y2="233.8165">
		<stop  offset="0" style="stop-color:#29CDFF"/>
		<stop  offset="0.3786" style="stop-color:#148EFF"/>
		<stop  offset="1" style="stop-color:#0A60FF"/>
	</linearGradient>
	<path id="back_2_" fill="url(#back_1_)" d="M251.446,27.502c-19.309-27.625-57.44-35.813-85.011-18.25l-48.42,30.855
		c-13.214,8.3-22.325,21.777-25.103,37.134c-2.315,12.816-0.29,26.039,5.757,37.575c-4.143,6.285-6.967,13.35-8.3,20.756
		c-2.793,15.682,0.856,31.827,10.119,44.783c19.309,27.624,57.442,35.812,85.012,18.248l48.42-30.726
		c13.197-8.316,22.302-21.787,25.102-37.132c2.307-12.813,0.273-26.03-5.774-37.559c4.141-6.287,6.969-13.349,8.315-20.757
		c2.785-15.679-0.859-31.82-10.117-44.779"/>
	<path id="front_2_" fill="#FFFFFF" d="M161.701,183.026c-15.614,4.051-32.097-2.063-41.292-15.315
		c-5.568-7.79-7.757-17.496-6.069-26.92c0.272-1.519,0.658-3.014,1.149-4.476l0.91-2.785l2.488,1.858
		c5.718,4.173,12.102,7.349,18.88,9.394l1.857,0.538l-0.167,1.854c-0.178,2.548,0.538,5.076,2.024,7.15
		c2.773,3.986,7.739,5.824,12.439,4.604c1.051-0.284,2.051-0.719,2.968-1.299l48.347-30.857c2.4-1.508,4.055-3.964,4.549-6.758
		c0.499-2.844-0.168-5.769-1.856-8.113c-2.774-3.985-7.739-5.824-12.44-4.603c-1.051,0.276-2.05,0.717-2.969,1.299l-18.565,11.789
		c-3.038,1.925-6.348,3.377-9.822,4.308c-15.586,4.027-32.032-2.077-41.216-15.299c-5.551-7.795-7.726-17.501-6.033-26.92
		c1.657-9.255,7.136-17.383,15.093-22.391l48.495-30.856c3.018-1.922,6.31-3.373,9.764-4.306
		c15.609-4.054,32.088,2.061,41.272,15.316c5.573,7.786,7.768,17.493,6.088,26.92c-0.288,1.526-0.676,3.033-1.15,4.511l-0.928,2.784
		l-2.469-1.856c-5.731-4.207-12.134-7.409-18.937-9.469l-1.856-0.538l0.168-1.856c0.214-2.559-0.485-5.11-1.97-7.204
		c-2.791-3.917-7.713-5.698-12.364-4.474c-1.053,0.279-2.053,0.717-2.972,1.301l-48.438,30.8c-2.392,1.512-4.042,3.956-4.55,6.738
		c-0.489,2.852,0.18,5.777,1.857,8.132c2.761,3.95,7.674,5.781,12.346,4.605c1.048-0.287,2.049-0.724,2.971-1.299l18.565-11.772
		c3.035-1.946,6.354-3.405,9.84-4.325c15.605-4.064,32.086,2.045,41.271,15.297c5.574,7.788,7.767,17.493,6.092,26.92
		c-1.656,9.254-7.138,17.382-15.093,22.39l-48.44,30.856C168.498,180.632,165.18,182.091,161.701,183.026"/>
</g>
<g>
	<linearGradient id="SVGID_1_" gradientUnits="userSpaceOnUse" x1="314.9727" y1="27.2891" x2="314.9727" y2="170.0096">
		<stop  offset="0" style="stop-color:#FA816E"/>
		<stop  offset="0.4147" style="stop-color:#F74A5C"/>
		<stop  offset="1" style="stop-color:#F51D2C"/>
	</linearGradient>
	<path fill="url(#SVGID_1_)" d="M291.618,164.906c-2.68,0-5.356-1.03-7.387-3.086c-4.028-4.079-3.986-10.651,0.093-14.68
		l39.424-38.932l-39.037-40.624c-3.973-4.134-3.842-10.705,0.292-14.677c4.133-3.972,10.704-3.841,14.676,0.292l46.133,48.007
		c3.935,4.094,3.85,10.588-0.19,14.579l-46.711,46.126C296.888,163.91,294.252,164.906,291.618,164.906z"/>
</g>
<g>
	
		<linearGradient id="SVGID_2_" gradientUnits="userSpaceOnUse" x1="109.4048" y1="41.4399" x2="109.4048" y2="177.314" gradientTransform="matrix(-1 0 0 1 148.002 0)">
		<stop  offset="0" style="stop-color:#29CDFF"/>
		<stop  offset="0.3786" style="stop-color:#148EFF"/>
		<stop  offset="1" style="stop-color:#0A60FF"/>
	</linearGradient>
	<path fill="url(#SVGID_2_)" d="M60.967,162.484c-2.524,0-5.048-0.955-6.985-2.869L9.241,115.433
		c-3.87-3.82-3.951-10.041-0.183-13.963l44.188-45.983c3.805-3.959,10.099-4.084,14.058-0.28c3.959,3.805,4.084,10.099,0.28,14.058
		l-37.392,38.912l37.762,37.289c3.907,3.859,3.946,10.154,0.088,14.061C66.097,161.496,63.532,162.484,60.967,162.484z"/>
</g>
</svg>
